# xmcd
#
# Track frame offsets: 
#        150
#        2662
#        25499
#        35549
#        49874
#        68474
#        89924
#        102524
#        115799
#        129974
#        165974
#        180884
#        201884
#        225171
#        249621
#
# Disc length: 3676 seconds
#
# Revision: 0
# Processed by: cddbd v1.5.2PL0 Copyright (c) Steve Scherf et al.
# Submitted via: ExactAudioCopy v0.99pb4
#
DISCID=b60e5a0f
DTITLE=Slow Rollin Lows - Erie Street
DYEAR=2009
DGENRE=Country
TTITLE0=Intro
TTITLE1=Redemption
TTITLE2=Something To Say
TTITLE3=Green Eyed Girl
TTITLE4=Crying Clown Blues
TTITLE5=Our Brothers
TTITLE6=Be Alone
TTITLE7=Waking Up With Strangers
TTITLE8=Hippies, Drunks, And Rednecks
TTITLE9=Let It All Go
TTITLE10=I Don't Wanna Go Home
TTITLE11=Dead And Gone
TTITLE12=Sad Country Song
TTITLE13=This Dream
TTITLE14=Gypsy Ghost
EXTD=
EXTT0=
EXTT1=
EXTT2=
EXTT3=
EXTT4=
EXTT5=
EXTT6=
EXTT7=
EXTT8=
EXTT9=
EXTT10=
EXTT11=
EXTT12=
EXTT13=
EXTT14=
PLAYORDER=
